HIERARCHY
ROOT root
{
	OFFSET	0	13.1	24.9
	CHANNELS 6  Xposition Yposition Zposition Xrotation Yrotation Zrotation
	JOINT spine_1
	{
		OFFSET	0	9.99999	0
		CHANNELS 3  Xrotation Yrotation Zrotation
		JOINT spine_2
		{
			OFFSET	0	112	-10
			CHANNELS 3  Xrotation Yrotation Zrotation
			JOINT spine_3
			{
				OFFSET	0	206.5	19.3
				CHANNELS 3  Xrotation Yrotation Zrotation
				JOINT spine_4
				{
					OFFSET	0	110.4	14.6
					CHANNELS 3  Xrotation Yrotation Zrotation
					JOINT neck_1
					{
						OFFSET	0	71.8	-50.3
						CHANNELS 3  Xrotation Yrotation Zrotation
						JOINT neck_2
						{
							OFFSET	0	86.2	-25.8
							CHANNELS 3  Xrotation Yrotation Zrotation
							JOINT head_ee
							{
								OFFSET	0	179.8	-8.7
								CHANNELS 3  Xrotation Yrotation Zrotation
								End Site
								{
									OFFSET	1	0	0
								}
							}
						}
					}
					JOINT left_clavicle
					{
						OFFSET	-43.2	22.4	-70.8
						CHANNELS 3  Xrotation Yrotation Zrotation
						JOINT left_shoulder
						{
							OFFSET	-93.9	-5.79999	48.7
							CHANNELS 3  Xrotation Yrotation Zrotation
							JOINT left_elbow
							{
								OFFSET	-291.4	-30.8	15.2
								CHANNELS 3  Xrotation Yrotation Zrotation
								JOINT left_lowarm_twist
								{
									OFFSET	-110.7	-3.89999	13.6
									CHANNELS 3  Xrotation Yrotation Zrotation
									JOINT left_hand
									{
										OFFSET	-110.7	-3.89999	13.6
										CHANNELS 3  Xrotation Yrotation Zrotation
										JOINT left_ee
										{
											OFFSET	-80.8	-5.10001	12.1
											CHANNELS 3  Xrotation Yrotation Zrotation
											End Site
											{
												OFFSET	1	0	0
											}
										}
									}
								}
							}
						}
					}
					JOINT right_clavicle
					{
						OFFSET	43.2	22.4	-70.8
						CHANNELS 3  Xrotation Yrotation Zrotation
						JOINT right_shoulder
						{
							OFFSET	93.9	-5.79999	48.7
							CHANNELS 3  Xrotation Yrotation Zrotation
							JOINT right_elbow
							{
								OFFSET	291.4	-30.8	15.2
								CHANNELS 3  Xrotation Yrotation Zrotation
								JOINT right_lowarm_twist
								{
									OFFSET	110.7	-3.89999	13.6
									CHANNELS 3  Xrotation Yrotation Zrotation
									JOINT right_hand
									{
										OFFSET	110.7	-3.89999	13.6
										CHANNELS 3  Xrotation Yrotation Zrotation
										JOINT right_ee
										{
											OFFSET	80.8	-5.10001	12.1
											CHANNELS 3  Xrotation Yrotation Zrotation
											End Site
											{
												OFFSET	1	0	0
											}
										}
									}
								}
							}
						}
					}
				}
			}
		}
	}
	JOINT left_hip
	{
		OFFSET	-82.8	-127.5	0.300001
		CHANNELS 3  Xrotation Yrotation Zrotation
		JOINT left_knee
		{
			OFFSET	-28.2	-396.7	2.2
			CHANNELS 3  Xrotation Yrotation Zrotation
			JOINT left_ankle
			{
				OFFSET	-11.7	-411.3	35.4
				CHANNELS 3  Xrotation Yrotation Zrotation
				JOINT left_toes
				{
					OFFSET	0	-60	-88.6
					CHANNELS 3  Xrotation Yrotation Zrotation
					JOINT left_foot_ee
					{
						OFFSET	-22.5	-16.5	-42.2
						CHANNELS 3  Xrotation Yrotation Zrotation
						End Site
						{
							OFFSET	1	0	0
						}
					}
				}
			}
		}
	}
	JOINT right_hip
	{
		OFFSET	82.8	-127.5	0.300001
		CHANNELS 3  Xrotation Yrotation Zrotation
		JOINT right_knee
		{
			OFFSET	28.2	-396.7	2.2
			CHANNELS 3  Xrotation Yrotation Zrotation
			JOINT right_ankle
			{
				OFFSET	11.7	-411.3	35.4
				CHANNELS 3  Xrotation Yrotation Zrotation
				JOINT right_toes
				{
					OFFSET	0	-60	-88.6
					CHANNELS 3  Xrotation Yrotation Zrotation
					JOINT right_foot_ee
					{
						OFFSET	22.5	-16.5	-42.2
						CHANNELS 3  Xrotation Yrotation Zrotation
						End Site
						{
							OFFSET	1	0	0
						}
					}
				}
			}
		}
	}
}
MOTION
Frames: 5
Frame Time: 0.02
2800.94 716.97 -1473.77 0.830141569193 56.977086457 -3.36241341276 -0.409288 0.285795 0.825734 -0.408939 0.232674 0.842245 -0.405213 0.0442995 0.872667 -0.40623 0.18156 0.854721 -6.14559 9.22275 -2.20463 -6.08521 18.6788 -0.469388 -0.0 0.0 -0.0 3.79394 15.65 7.87145 18.5784 -33.8718 55.8292 4.29291 -64.7952 2.72487 -43.6299 -3.34522 4.30901 -7.42295 25.8685 -33.5931 -0.0 0.0 -0.0 3.47436 -4.8474 -6.95908 -46.8905 34.0648 -61.0532 0.725106 19.7581 -0.12628 33.7297 0.0639025 4.24668 2.10741 -29.767 -23.5217 0.0 0.0 0.0 -22.3739 11.4264 10.5478 2.03305 -0.0890434 -0.299244 34.5128 0.741359 -4.36664 -20.2576 0.0 0.0 -0.0 0.0 -0.0 28.9801 24.5722 -5.52776 4.41298 0.206718 0.645356 -11.9789 4.59641 -1.83969 -4.08547 0.0 0.0 0.0 0.0 0.0 
2647.03508571 731.656 -1549.7061828 -2.88276355737 65.9480450335 0.0561746422833 0.751606 0.212176 1.08705 0.752252 0.142578 1.09834 0.755217 -0.0768964 1.10489 0.753527 0.098554 1.10317 -1.84498 7.70658 -0.0320081 -1.73948 13.9354 0.956185 -0.0 0.0 -0.0 0.439343 15.2101 2.49008 2.64931 -29.7219 55.9561 3.76708 -61.7976 2.25496 -39.6115 -2.90994 4.03261 -5.08604 25.873 -18.5749 -0.0 0.0 -0.0 6.8383 -5.46864 -13.2238 -41.6142 38.6985 -58.7066 0.519822 14.4404 -0.0658552 26.9832 -0.149701 3.41194 2.11747 -28.1598 -23.2382 0.0 0.0 0.0 -19.887 9.04032 6.01275 -7.53946 0.236208 1.13214 34.8822 -2.07756 -4.42623 -17.8011 0.0 0.0 -0.0 0.0 -0.0 20.1733 24.583 -6.20576 1.41959 0.0610551 0.209276 9.57926 1.25699 1.38121 -2.08407 0.0 0.0 0.0 0.0 0.0 
2634.93218427 735.032 -1554.78741552 -4.35785409884 65.7905748977 1.6650134774 1.00014 0.289776 1.08291 1.00076 0.220284 1.09916 1.0052 0.00402862 1.121 1.0035 0.181009 1.1063 -1.85668 7.66874 -0.62763 -1.73927 14.3398 0.323753 -0.0 0.0 -0.0 0.151138 15.093 2.01723 0.147323 -29.7297 55.7804 3.6645 -61.1348 2.16485 -39.9256 -2.94326 4.05531 -4.65018 24.7636 -16.7641 -0.0 0.0 -0.0 7.57679 -4.91753 -14.6371 -40.0089 39.2005 -58.0279 0.504426 14.0298 -0.0620695 26.7951 -0.15424 3.38834 1.99632 -29.2224 -22.7461 0.0 0.0 0.0 -17.7383 9.24399 5.09987 -9.23236 0.268625 1.38989 35.2615 -1.96189 -4.46168 -17.9915 0.0 0.0 -0.0 0.0 -0.0 19.2538 24.734 -6.23175 1.19966 0.0512567 0.176953 9.47281 1.45931 1.36717 -1.98096 0.0 0.0 0.0 0.0 0.0 
2590.07734271 731.655 -1563.14908459 -3.21611156295 67.589311828 0.988143359469 1.35595 0.412088 1.12664 1.35659 0.339567 1.15058 1.36361 0.118642 1.19375 1.36175 0.305671 1.16004 -2.41206 8.87817 -2.3793 -2.21543 17.9485 -1.29653 -0.0 0.0 -0.0 0.240187 18.0465 2.47756 -4.73008 -29.6047 54.5042 3.35962 -58.9858 1.9006 -43.2619 -3.30456 4.28497 -2.86284 18.1424 -9.99289 -0.0 0.0 -0.0 8.52682 -5.83099 -16.4127 -37.7424 40.3171 -56.8082 0.431912 12.0769 -0.0456892 25.9628 -0.173391 3.28375 1.55102 -29.4438 -20.1898 0.0 0.0 0.0 -14.9512 7.25639 2.53438 -23.9176 0.228596 3.63666 40.3546 1.16074 -4.8988 -14.4702 0.0 0.0 -0.0 0.0 -0.0 11.8866 26.1196 -4.68721 6.83425 0.341121 0.992265 11.7983 4.52266 1.70534 -4.3729 0.0 0.0 0.0 0.0 0.0 
2592.05490023 731.655 -1567.67791285 -3.05695648931 66.3548358422 0.815217849242 1.35595 0.412088 1.12664 1.35659 0.339567 1.15058 1.36361 0.118642 1.19375 1.36175 0.305671 1.16004 -2.41206 8.87817 -2.3793 -2.21543 17.9485 -1.29653 -0.0 0.0 -0.0 0.240187 18.0465 2.47756 -4.73008 -29.6047 54.5042 3.35962 -58.9858 1.9006 -43.2619 -3.30456 4.28497 -2.86284 18.1424 -9.99289 -0.0 0.0 -0.0 8.52682 -5.83099 -16.4127 -37.7424 40.3171 -56.8082 0.431912 12.0769 -0.0456892 25.9628 -0.173391 3.28375 1.55102 -29.4438 -20.1898 0.0 0.0 0.0 -14.9512 7.25639 2.53438 -23.9176 0.228596 3.63666 40.3546 1.16074 -4.8988 -14.4702 0.0 0.0 -0.0 0.0 -0.0 11.8866 26.1196 -4.68721 6.83425 0.341121 0.992265 11.7983 4.52266 1.70534 -4.3729 0.0 0.0 0.0 0.0 0.0 
